<svg xmlns="http://www.w3.org/2000/svg" width="2732" height="2732" viewBox="0 0 2732 2732">
  <defs>
    <linearGradient id="bg" x1="380" y1="180" x2="2350" y2="2550" gradientUnits="userSpaceOnUse">
      <stop stop-color="#102D4F"/><stop offset="1" stop-color="#071525"/>
    </linearGradient>
    <linearGradient id="ribbon" x1="960" y1="900" x2="1770" y2="1700" gradientUnits="userSpaceOnUse">
      <stop stop-color="#FF7A3D"/><stop offset=".48" stop-color="#FF4F67"/><stop offset="1" stop-color="#7B61FF"/>
    </linearGradient>
    <linearGradient id="link" x1="970" y1="1680" x2="1760" y2="950" gradientUnits="userSpaceOnUse">
      <stop stop-color="#53E0C1"/><stop offset="1" stop-color="#B9F86A"/>
    </linearGradient>
  </defs>
  <rect width="2732" height="2732" fill="url(#bg)"/>
  <circle cx="2260" cy="420" r="520" fill="#53E0C1" opacity=".035"/>
  <circle cx="390" cy="2300" r="650" fill="#FF4F67" opacity=".035"/>
  <path d="M1722 920h-400c-182 0-299 94-299 238 0 140 111 224 288 224h238c77 0 124 30 124 86 0 58-50 91-133 91h-405" fill="none" stroke="url(#ribbon)" stroke-width="176" stroke-linecap="round"/>
  <path d="M1138 1688h400c182 0 299-94 299-238 0-140-111-224-288-224h-238c-77 0-124-30-124-86 0-58 50-91 133-91h405" fill="none" stroke="url(#link)" stroke-width="94" stroke-linecap="round"/>
  <circle cx="1742" cy="920" r="52" fill="#fff"/><circle cx="1118" cy="1688" r="52" fill="#fff"/>
  <text x="1366" y="2025" text-anchor="middle" fill="#fff" font-family="Arial, Helvetica, sans-serif" font-size="210" font-weight="800" letter-spacing="48">SAATH</text>
  <text x="1366" y="2145" text-anchor="middle" fill="#A9BEC9" font-family="Arial, Helvetica, sans-serif" font-size="60" font-weight="500" letter-spacing="5">PROGRESS, TOGETHER.</text>
</svg>
